<?xml version="1.0" standalone="no"?>
<!DOCTYPE svg PUBLIC "-//W3C//DTD SVG 20010904//EN"
 "http://www.w3.org/TR/2001/REC-SVG-20010904/DTD/svg10.dtd">
<svg version="1.0" xmlns="http://www.w3.org/2000/svg"
 width="512.000000pt" height="512.000000pt" viewBox="0 0 512.000000 512.000000"
 preserveAspectRatio="xMidYMid meet">
<metadata>
Created by potrace 1.14, written by Peter Selinger 2001-2017
</metadata>
<g transform="translate(0.000000,512.000000) scale(0.100000,-0.100000)"
fill="#000000" stroke="none">
<path d="M2399 4876 c-2 -2 -35 -6 -74 -10 -38 -4 -86 -8 -105 -11 -51 -5
-187 -34 -245 -51 -27 -8 -50 -14 -50 -13 0 4 -168 -53 -225 -76 -159 -64
-395 -193 -505 -277 -436 -332 -726 -751 -870 -1254 -27 -95 -28 -103 -46
-199 -5 -33 -12 -71 -15 -85 -19 -109 -26 -461 -11 -585 4 -33 9 -78 12 -100
21 -168 109 -459 190 -631 159 -338 398 -638 685 -857 41 -32 84 -64 95 -73
11 -9 72 -47 136 -84 102 -61 171 -96 299 -153 91 -40 311 -109 390 -122 19
-3 51 -10 70 -15 19 -5 58 -11 85 -15 28 -3 82 -9 120 -14 66 -9 415 -7 480 2
17 2 55 8 85 12 64 9 57 7 184 35 178 39 359 106 546 202 63 33 122 66 131 74
8 8 19 14 24 14 12 0 197 134 272 198 82 69 217 204 270 269 21 26 41 50 44
53 42 37 209 298 270 424 61 125 141 333 155 406 3 14 11 48 19 75 65 234 81
582 41 884 -10 71 -20 123 -51 251 -11 45 -47 155 -73 225 -188 499 -554 930
-1020 1199 -235 135 -570 251 -812 281 -30 4 -66 9 -80 11 -32 6 -416 15 -421
10z"/>
</g>
</svg>
